<?xml version="1.0" standalone="no"?>
<!DOCTYPE svg PUBLIC "-//W3C//DTD SVG 20010904//EN"
 "http://www.w3.org/TR/2001/REC-SVG-20010904/DTD/svg10.dtd">
<svg version="1.0" xmlns="http://www.w3.org/2000/svg"
 width="500.000000pt" height="500.000000pt" viewBox="0 0 500.000000 500.000000"
 preserveAspectRatio="xMidYMid meet">

<g transform="translate(0.000000,500.000000) scale(0.100000,-0.100000)"
fill="#000000" stroke="none">
<path d="M1130 3105 c0 -197 4 -305 10 -305 6 0 10 108 10 305 0 197 -4 305
-10 305 -6 0 -10 -108 -10 -305z"/>
<path d="M600 3032 c0 -13 319 -326 326 -319 7 7 -304 327 -318 327 -4 0 -8
-3 -8 -8z"/>
<path d="M920 3017 c0 -6 110 -269 119 -285 25 -41 7 13 -46 146 -32 78 -61
142 -65 142 -5 0 -8 -1 -8 -3z"/>
<path d="M1342 3000 c-5 -14 -33 -81 -61 -149 -29 -68 -50 -126 -47 -129 3 -3
12 10 20 29 88 209 106 254 102 263 -2 6 -8 0 -14 -14z"/>
<path d="M1575 2791 c-120 -54 -163 -212 -86 -314 79 -104 93 -130 88 -170 -7
-49 -51 -106 -98 -126 -34 -14 -39 -20 -39 -48 0 -29 3 -33 26 -33 41 0 120
49 151 92 19 29 28 55 31 98 6 76 -10 118 -69 193 -60 74 -66 95 -44 153 18
47 62 88 108 99 23 6 27 12 27 41 0 30 -3 34 -27 34 -16 0 -46 -9 -68 -19z"/>
<path d="M1804 2791 c-48 -22 -101 -82 -114 -131 -22 -80 -5 -144 59 -220 49
-58 61 -82 61 -120 0 -58 -58 -132 -116 -146 -20 -5 -24 -12 -24 -41 l0 -36
42 6 c53 7 117 52 144 101 45 80 38 164 -19 244 -18 24 -42 57 -54 74 -50 68
-19 160 67 200 44 21 49 27 50 56 0 28 -3 32 -27 32 -16 0 -46 -9 -69 -19z"/>
<path d="M3502 2799 c-110 -18 -213 -97 -261 -199 -22 -47 -26 -69 -26 -150 0
-89 2 -99 34 -158 41 -75 94 -125 170 -160 46 -22 71 -26 141 -27 75 0 93 4
152 32 79 37 80 40 76 173 l-3 95 -112 3 -113 3 0 -35 0 -35 73 -3 72 -3 3
-57 3 -56 -56 -21 c-101 -38 -198 -21 -278 49 -114 101 -119 286 -9 393 84 82
213 104 315 53 65 -31 73 -32 87 -5 17 30 7 45 -47 73 -37 18 -163 52 -167 45
-1 -1 -25 -5 -54 -10z"/>
<path d="M4433 2799 c-225 -29 -364 -284 -266 -490 107 -226 394 -279 568
-104 71 70 99 141 100 245 0 73 -4 94 -29 147 -66 143 -212 222 -373 202z
m167 -100 c92 -40 160 -143 160 -245 0 -96 -69 -203 -159 -249 -88 -44 -214
-25 -293 44 -64 57 -92 120 -92 206 0 60 4 78 30 125 75 132 214 179 354 119z"/>
<path d="M4445 2495 c-30 -29 -31 -45 -4 -79 25 -31 61 -34 89 -6 28 28 25 64
-6 89 -34 27 -50 26 -79 -4z"/>
<path d="M2017 2794 c-4 -4 -7 -160 -7 -346 l0 -338 238 2 237 3 0 35 0 35
-197 3 -198 2 0 65 0 64 158 3 157 3 0 35 0 35 -157 3 -158 3 0 59 0 59 158 3
157 3 0 35 0 35 -157 3 -158 3 0 59 0 60 201 0 200 0 -3 38 -3 37 -231 3
c-127 1 -233 -1 -237 -4z"/>
<path d="M2594 2784 c4 -9 49 -88 101 -174 52 -87 95 -161 95 -164 0 -3 -43
-6 -95 -6 l-95 0 0 -166 0 -165 38 3 37 3 3 128 3 127 79 0 79 0 72 -120 c39
-66 77 -124 84 -130 8 -6 32 -10 54 -8 l40 3 -76 125 c-67 111 -73 126 -58
135 83 49 117 88 136 158 29 107 -51 232 -163 257 -27 5 -114 10 -195 10 -130
0 -144 -2 -139 -16z m345 -82 c114 -57 99 -218 -24 -256 -20 -6 -34 14 -165
237 l-22 37 89 0 c64 0 97 -5 122 -18z"/>
<path d="M3925 2788 c-3 -7 -4 -162 -3 -343 l3 -330 38 -3 37 -3 -2 343 -3
343 -33 3 c-20 2 -34 -2 -37 -10z"/>
<path d="M620 2713 c0 -8 246 -112 283 -120 41 -8 -7 15 -144 73 -143 59 -139
57 -139 47z"/>
<path d="M1065 2672 c-49 -23 -79 -55 -100 -104 -51 -122 39 -258 171 -258 80
0 92 8 50 34 -105 64 -123 192 -38 277 21 20 44 38 52 41 25 9 3 21 -47 25
-33 2 -60 -2 -88 -15z m81 -32 c-88 -78 -89 -203 0 -286 l35 -34 -29 0 c-99 0
-184 81 -184 174 1 105 68 175 170 176 l43 0 -35 -30z"/>
<path d="M1208 2539 c-21 -12 -24 -59 -6 -77 7 -7 21 -12 33 -12 43 0 61 53
29 84 -18 18 -32 20 -56 5z m50 -21 c16 -16 15 -23 -4 -42 -12 -12 -20 -13
-35 -6 -19 10 -26 40 -12 53 10 11 38 8 51 -5z"/>
<path d="M383 2493 c87 -2 227 -2 310 0 84 1 13 3 -158 3 -171 0 -239 -2 -152
-3z"/>
<path d="M785 2359 c-166 -68 -168 -69 -162 -75 5 -6 276 103 292 117 18 17
-10 8 -130 -42z"/>
<path d="M755 2120 c-88 -88 -155 -160 -150 -160 6 0 82 72 170 160 88 88 155
160 150 160 -6 0 -82 -72 -170 -160z"/>
<path d="M982 2134 c-34 -81 -59 -150 -57 -153 3 -2 7 -2 8 0 12 14 118 282
115 291 -2 6 -32 -56 -66 -138z"/>
<path d="M1230 2274 c0 -6 24 -69 53 -140 29 -71 57 -138 61 -149 5 -11 10
-15 12 -10 2 6 -20 70 -51 143 -57 139 -74 175 -75 156z"/>
<path d="M1130 1890 c0 -193 4 -300 10 -300 6 0 10 107 10 300 0 193 -4 300
-10 300 -6 0 -10 -107 -10 -300z"/>
<path d="M2800 2010 c-40 -40 -20 -120 30 -120 53 0 60 8 60 66 0 42 -4 55
-19 64 -29 15 -49 12 -71 -10z m68 -12 c17 -17 15 -64 -4 -82 -18 -19 -20 -19
-45 -6 -14 8 -19 21 -19 49 0 21 3 41 7 44 11 11 48 8 61 -5z"/>
<path d="M3360 2010 c-40 -40 -20 -120 30 -120 53 0 60 8 60 66 0 42 -4 55
-19 64 -29 15 -49 12 -71 -10z m68 -12 c17 -17 15 -64 -4 -82 -18 -19 -20 -19
-45 -6 -14 8 -19 21 -19 49 0 21 3 41 7 44 11 11 48 8 61 -5z"/>
<path d="M2660 1955 c0 -37 4 -65 10 -65 6 0 10 9 10 20 0 15 7 20 26 20 17 0
28 -6 31 -20 6 -22 23 -28 23 -7 0 6 -4 19 -9 26 -6 9 -6 22 0 33 6 10 7 28 4
38 -5 16 -15 20 -51 20 l-44 0 0 -65z m75 25 c0 -20 -6 -26 -27 -28 -25 -3
-28 0 -28 28 0 28 3 31 28 28 21 -2 27 -8 27 -28z"/>
<path d="M2932 1953 l2 -68 3 58 c2 31 8 57 12 57 4 0 13 -25 20 -55 9 -41 17
-55 30 -55 13 0 21 16 33 63 l16 62 1 -62 c1 -84 21 -81 21 3 0 62 -1 65 -22
62 -19 -2 -25 -12 -32 -55 -5 -29 -12 -53 -16 -53 -4 0 -12 25 -19 55 -10 43
-17 55 -32 55 -17 0 -19 -7 -17 -67z"/>
<path d="M3110 1955 l0 -65 40 0 c22 0 40 5 40 10 0 6 -13 10 -30 10 -23 0
-30 5 -30 19 0 15 8 21 33 24 l32 4 -32 1 c-28 2 -33 6 -33 26 0 20 6 25 33
29 28 3 26 4 -10 5 l-43 2 0 -65z"/>
<path d="M3220 1955 c0 -37 4 -65 10 -65 6 0 10 9 10 20 0 29 48 27 60 -2 9
-22 9 -22 9 3 1 27 -14 39 -50 39 -15 0 -19 7 -19 31 0 27 3 30 28 27 23 -2
27 -7 25 -30 -1 -16 2 -28 8 -28 5 0 9 16 9 35 0 35 0 35 -45 35 l-45 0 0 -65z"/>
</g>
</svg>
